<svg width="48" height="48" viewBox="0 0 48 48" fill="none" xmlns="http://www.w3.org/2000/svg">
<rect width="48" height="48" rx="24" fill="#222529"/>
<path fill-rule="evenodd" clip-rule="evenodd" d="M24 38.6667C24.2234 38.6667 24.4457 38.6617 24.6667 38.6518V37.7908C24.6667 37.5684 24.5926 37.3524 24.4561 37.1769L23.8542 36.403L23.3347 37.1823C23.2252 37.3466 23.1667 37.5396 23.1667 37.737V38.6434C23.4425 38.6588 23.7203 38.6667 24 38.6667ZM25.3334 37.7908V38.6069C25.9006 38.5558 26.4586 38.4723 27.0053 38.3585C25.5527 37.0867 25.2574 35.5428 25.3158 34.713C24.8227 34.2788 24.4252 33.7308 24.1667 33.1273V35.719L24.9823 36.7676C25.2099 37.0601 25.3334 37.4202 25.3334 37.7908ZM24.1667 27.3631V30.058C24.5437 29.258 25.2543 28.5411 26.3603 28.0307C27.4076 27.5473 27.9404 27.0786 28.2527 26.656C28.5038 26.3164 28.6212 26.0016 28.7473 25.6637L28.7473 25.6637C28.7807 25.574 28.8147 25.4828 28.8521 25.389C28.5365 25.1451 28.3333 24.763 28.3333 24.3333C28.3333 23.597 28.9303 23 29.6667 23C30.403 23 31 23.597 31 24.3333C31 25.0697 30.403 25.6667 29.6667 25.6667C29.5982 25.6667 29.5309 25.6615 29.4651 25.6515C29.4394 25.717 29.4136 25.7866 29.3867 25.8594L29.3866 25.8597L29.3865 25.8598L29.3864 25.8601L29.3863 25.8603L29.3863 25.8605L29.3862 25.8606C29.2576 26.2077 29.1013 26.6296 28.7889 27.0523C28.7022 27.1695 28.6042 27.2865 28.4922 27.4032C29.7829 27.0302 31.1363 26.6487 31.6669 26.5282L31.6667 26.5C31.6667 25.6716 32.3382 25 33.1667 25C33.9951 25 34.6667 25.6716 34.6667 26.5C34.6667 27.3284 33.9951 28 33.1667 28C32.5812 28 32.0741 27.6646 31.827 27.1754C31.3272 27.2868 29.9214 27.6838 28.5911 28.0686C29.0149 28.1967 29.4326 28.4144 29.7667 28.7687C29.8854 28.7037 30.0217 28.6667 30.1667 28.6667C30.6269 28.6667 31 29.0398 31 29.5C31 29.9602 30.6269 30.3333 30.1667 30.3333C29.7064 30.3333 29.3333 29.9602 29.3333 29.5C29.3333 29.4345 29.3409 29.3708 29.3552 29.3097C29.0252 28.9085 28.5306 28.701 28.0017 28.6167C27.467 28.5315 26.9369 28.5795 26.6079 28.6508C25.1222 29.3476 24.539 30.4152 24.5037 31.4534C24.4673 32.5222 25.0095 33.6138 25.8761 34.3136C26.432 34.7626 27.1108 35.0413 27.8394 35.0545C28.0356 35.0581 28.2363 35.0425 28.4403 35.0054C29.9299 34.7345 30.9709 34.7295 31.6752 34.8462C32.0276 34.9045 32.304 34.9947 32.5123 35.1036C32.7139 35.2091 32.8795 35.3472 32.9648 35.5176C32.9763 35.5407 32.9849 35.5646 32.9908 35.5887C36.4444 32.9054 38.6667 28.7122 38.6667 24C38.6667 15.8998 32.1002 9.33333 24 9.33333C15.8998 9.33333 9.33333 15.8998 9.33333 24C9.33333 28.5603 11.4147 32.6346 14.6792 35.3246C14.764 35.2396 14.8706 35.1659 14.9897 35.1036C15.1979 34.9947 15.4744 34.9045 15.8267 34.8462C16.5311 34.7295 17.572 34.7345 19.0616 35.0054C19.2656 35.0425 19.4663 35.0581 19.6626 35.0545C20.3911 35.0413 21.0699 34.7626 21.6259 34.3136C22.4925 33.6138 23.0346 32.5222 22.9983 31.4534C22.9629 30.4152 22.3797 29.3476 20.8941 28.6508C20.5651 28.5795 20.035 28.5315 19.5003 28.6167C19.1517 28.6722 18.818 28.7813 18.5365 28.9641C18.6197 29.1245 18.6667 29.3068 18.6667 29.5C18.6667 30.1443 18.1443 30.6667 17.5 30.6667C16.8557 30.6667 16.3333 30.1443 16.3333 29.5C16.3333 28.8557 16.8557 28.3333 17.5 28.3333C17.705 28.3333 17.8977 28.3862 18.0651 28.4791C18.3269 28.2889 18.6174 28.1573 18.9108 28.0686C17.51 27.6634 16.0255 27.2446 15.6033 27.1602C15.5623 27.152 15.5246 27.1366 15.4912 27.1156C15.2853 27.4465 14.9184 27.6667 14.5 27.6667C13.8557 27.6667 13.3333 27.1443 13.3333 26.5C13.3333 25.8557 13.8557 25.3333 14.5 25.3333C15.1443 25.3333 15.6666 25.8556 15.6667 26.4999C15.6889 26.4998 15.7114 26.502 15.734 26.5065C16.1715 26.594 17.6267 27.0035 19.0097 27.4032C18.8978 27.2865 18.7997 27.1695 18.7131 27.0523C18.4007 26.6296 18.2444 26.2077 18.1158 25.8606L18.1157 25.8605L18.1157 25.8604C18.0893 25.7892 18.0641 25.7212 18.0389 25.6569C17.6393 25.5955 17.3333 25.2501 17.3333 24.8333C17.3333 24.3731 17.7064 24 18.1667 24C18.6269 24 19 24.3731 19 24.8333C19 25.0967 18.8778 25.3315 18.6871 25.4842C18.7104 25.5449 18.7327 25.6047 18.7547 25.6637C18.8807 26.0016 18.9982 26.3164 19.2492 26.656C19.5615 27.0786 20.0944 27.5473 21.1417 28.0307C22.4374 28.6287 23.1905 29.5101 23.5001 30.4765V27.433L23.4951 27.425C23.1511 26.9102 22.5405 26.1768 21.6874 25.4154C20.3062 24.1827 18.311 22.8961 15.8188 22.3382C15.5876 22.734 15.1582 23 14.6667 23C13.9303 23 13.3333 22.403 13.3333 21.6667C13.3333 20.9303 13.9303 20.3333 14.6667 20.3333C15.403 20.3333 16 20.9303 16 21.6667C16 21.6763 15.9999 21.6859 15.9997 21.6955C18.243 22.2045 20.0947 23.2696 21.4823 24.3716C21.3309 23.4974 20.9899 22.3437 20.3574 21.1568C19.6309 19.7937 18.5249 18.3961 16.8902 17.326C16.6541 17.5378 16.3421 17.6667 16 17.6667C15.2636 17.6667 14.6667 17.0697 14.6667 16.3333C14.6667 15.597 15.2636 15 16 15C16.7364 15 17.3333 15.597 17.3333 16.3333C17.3333 16.4867 17.3074 16.634 17.2598 16.7712C18.4895 17.577 19.4369 18.5557 20.1581 19.569C20.0807 18.6809 20.0109 17.5315 20.0012 16.2916C19.4255 16.144 19 15.6217 19 15C19 14.2636 19.597 13.6667 20.3333 13.6667C21.0697 13.6667 21.6667 14.2636 21.6667 15C21.6667 15.6208 21.2423 16.1426 20.6679 16.291C20.6844 18.3633 20.8716 20.1761 20.9732 20.8952C21.813 22.4898 22.1635 24.034 22.2339 25.0104C22.475 25.2298 22.6977 25.4472 22.9013 25.6586C22.7482 24.6023 22.8385 23.2319 23.5294 21.6965C24.2712 20.0482 24.5514 18.9947 24.6497 18.3459C24.6986 18.0227 24.7025 17.7998 24.6957 17.6534C24.6947 17.6307 24.6934 17.6096 24.6919 17.59C24.0962 17.3913 23.6667 16.8292 23.6667 16.1667C23.6667 15.3382 24.3382 14.6667 25.1667 14.6667C25.9951 14.6667 26.6667 15.3382 26.6667 16.1667C26.6667 16.9286 26.0986 17.5578 25.363 17.6539C25.3697 17.8434 25.3611 18.1008 25.3088 18.4458C25.1988 19.1719 24.8956 20.2852 24.1374 21.9701C23.2972 23.8372 23.436 25.3997 23.7409 26.3516C23.864 25.9664 24.0305 25.5317 24.2455 25.0847C24.6509 24.2418 25.2381 23.3358 26.0503 22.6363C26.1433 22.3558 26.3051 21.6489 26.3301 20.6086C25.9434 20.4704 25.6667 20.1009 25.6667 19.6667C25.6667 19.1144 26.1144 18.6667 26.6667 18.6667C27.219 18.6667 27.6667 19.1144 27.6667 19.6667C27.6667 20.1032 27.3869 20.4744 26.9969 20.6108C26.9858 21.0966 26.9463 21.521 26.8951 21.8748C28.1546 20.6253 28.6721 19.49 28.9553 18.4612C28.5815 18.225 28.3333 17.8082 28.3333 17.3333C28.3333 16.597 28.9303 16 29.6667 16C30.403 16 31 16.597 31 17.3333C31 18.0697 30.403 18.6667 29.6667 18.6667C29.6412 18.6667 29.6158 18.6659 29.5907 18.6645C29.3522 19.5204 28.963 20.437 28.2016 21.411C29.2296 20.9042 30.4638 20.3846 31.6686 20.072C31.6673 20.0482 31.6667 20.0242 31.6667 20C31.6667 19.2636 32.2636 18.6667 33 18.6667C33.7364 18.6667 34.3333 19.2636 34.3333 20C34.3333 20.7364 33.7364 21.3333 33 21.3333C32.5239 21.3333 32.1062 21.0838 31.8703 20.7085C29.7278 21.2571 27.4439 22.5146 26.5315 23.1022C25.7877 23.7272 25.235 24.5654 24.8463 25.3737C24.4632 26.1701 24.2487 26.9178 24.1667 27.3631ZM22.1861 34.713C22.8005 34.1719 23.2665 33.4543 23.5001 32.6727V35.7324L22.78 36.8125C22.5975 37.0863 22.5001 37.408 22.5001 37.737V38.5909C21.8519 38.5251 21.2162 38.417 20.5958 38.2696C21.9628 37.0155 22.2432 35.5236 22.1861 34.713ZM17.6486 37.2239C16.7869 36.8092 15.972 36.3128 15.2138 35.7448C15.236 35.7295 15.2639 35.7125 15.2987 35.6943C15.429 35.6262 15.6338 35.5538 15.9356 35.5039C16.5396 35.4038 17.4987 35.3988 18.9424 35.6613C19.0149 35.6745 19.0871 35.6854 19.1591 35.6942C18.9191 36.0997 18.4493 36.6901 17.6504 37.2227L17.6486 37.2239ZM19.8109 38.0597C19.3134 37.9117 18.8269 37.738 18.3531 37.5401C19.2179 36.8815 19.6982 36.1654 19.9019 35.7099C20.483 35.6632 21.0278 35.4798 21.5117 35.1993C21.4353 35.9544 21.0418 37.1073 19.8109 38.0597ZM29.3255 37.6699C28.8269 37.8643 28.315 38.0322 27.7917 38.1718C27.7702 38.133 27.7406 38.0979 27.7032 38.0691C26.4627 37.1149 26.0669 35.9569 25.9903 35.1993C26.4741 35.4798 27.019 35.6632 27.6001 35.7099C27.8172 36.1955 28.3488 36.9773 29.3255 37.6699ZM32.4988 35.9547C31.714 36.5136 30.8719 36.9972 29.983 37.3949C29.9604 37.3268 29.9158 37.2655 29.8515 37.2227C29.0526 36.6901 28.5829 36.0997 28.3429 35.6942C28.4148 35.6854 28.4871 35.6745 28.5596 35.6613C30.0033 35.3988 30.9624 35.4038 31.5663 35.5039C31.8681 35.5538 32.073 35.6262 32.2033 35.6943C32.3278 35.7595 32.364 35.8097 32.3682 35.8154C32.3686 35.816 32.3686 35.8161 32.3685 35.8157C32.3986 35.876 32.4446 35.9232 32.4988 35.9547ZM24 40C32.8366 40 40 32.8366 40 24C40 15.1634 32.8366 8 24 8C15.1634 8 8 15.1634 8 24C8 32.8366 15.1634 40 24 40Z" fill="#F8F9FA"/>
</svg>
